<svg width="1400" height="301.3544" xmlns="http://www.w3.org/2000/svg" fill="#12141d" xmlns:xlink="http://www.w3.org/1999/xlink">
  <!-- Original SVG Paths -->
  <path fill="#12141d" d="m188.33007 126.64441a6 6 0 0 1 -3-.81l-126.280003-72.91a6 6 0 0 1 -.13-10.32l68.480003-41.73000017a6 6 0 0 1 6.12-.07l126.29 72.91000017a6 6 0 0 1 .12 10.32l-68.48 41.75a6 6 0 0 1 -3.12.86zm-114.530003-79.05 114.450003 66.07 56.78-34.62-114.44-66.07z"></path>
  <path fill="#12141d" d="m130.50007 301.35441a6 6 0 0 1 -6-6v-77.37a6 6 0 0 1 3-5.2l126.29-72.91a6 6 0 0 1 9 5.2v77.37a6 6 0 0 1 -3 5.19l-126.29 72.91a5.93 5.93 0 0 1 -3 .81zm6-79.91v63.51l114.29-66v-63.49z"></path>
  <path fill="#12141d" d="m73.000067 265.32441a6 6 0 0 1 -2.92-.77l-66.9999996-37.42a6 6 0 0 1 -3.08000002-5.27l.8-141.66a6 6 0 0 1 8.92000002-5.2l66.9999996 37.42a6 6 0 0 1 3.08 5.27l-.8 141.66a6 6 0 0 1 -6 6zm-61-46.94 55 30.74.72-127.95-55-30.74z"></path>
  
  <!-- Text Elements -->
  <text x="290" y="175" font-family="Roboto, sans-serif" font-size="190" fill="#12141d">Hexuro</text>
  <text x="290" y="260" font-family="Roboto, sans-serif" font-size="99.5" fill="#12141d">Game Engine</text>
  
  <!-- Link til Roboto Font -->
  <defs>
    <style>
      @import url('https://fonts.googleapis.com/css2?family=Roboto:wght@400&amp;display=swap');
    </style>
  </defs>
</svg>